<?xml version="1.0"?>
<svg version="1.1" xmlns="http://www.w3.org/2000/svg" width="200" height="40" style=""><path fill="#cc4e35" d="M15.86376953125,31.8095703125q0-0.49560546875,0.33984375-0.630126953125t0.736328125-0.134521484375q0.69384765625,0,1.17529296875,0.623046875t0.913330078125,1.366455078125t0.856689453125,1.366455078125t1.00537109375,0.623046875q0.43896484375,0,0.800048828125-0.219482421875t0.623046875-0.55224609375t0.403564453125-0.75048828125t0.1416015625-0.828369140625q0-1.076171875-0.431884765625-2.22314453125t-1.1044921875-2.36474609375t-1.423095703125-2.4921875t-1.416015625-2.59130859375t-1.1044921875-2.683349609375t-0.43896484375-2.754150390625q0-2.08154296875,1.24609375-3.228515625t3.28515625-1.14697265625q0.69384765625,0,1.40185546875,0.1982421875t1.302734375,0.5947265625t0.969970703125,0.97705078125t0.375244140625,1.359375q0,0.2548828125-0.375244140625,0.332763671875t-0.545166015625,0.077880859375q-0.2548828125,0-0.55224609375-0.063720703125t-0.38232421875-0.346923828125t-0.24072265625-0.6513671875t-0.389404296875-0.686767578125t-0.55224609375-0.55224609375t-0.700927734375-0.233642578125q-0.63720703125,0-1.083251953125,0.261962890625t-0.72216796875,0.700927734375t-0.41064453125,0.984130859375t-0.134521484375,1.125732421875q0,1.359375,0.46728515625,2.739990234375t1.1611328125,2.7470703125t1.508056640625,2.697509765625t1.508056640625,2.59130859375t1.1611328125,2.4638671875t0.46728515625,2.27978515625q0,0.962890625-0.453125,1.62841796875t-1.14697265625,1.083251953125t-1.536376953125,0.60888671875t-1.649658203125,0.191162109375q-0.86376953125,0-1.77001953125-0.346923828125t-1.62841796875-0.955810546875t-1.189453125-1.423095703125t-0.46728515625-1.762939453125z M28.603237304688,29.798828125q0-0.9912109375,0.219482421875-2.33642578125t0.743408203125-2.548828125t1.380615234375-2.046142578125t2.159423828125-0.842529296875q1.2177734375,0,1.82666015625,0.700927734375t0.60888671875,1.890380859375q0,0.77880859375-0.290283203125,1.706298828125t-0.828369140625,1.755859375t-1.2744140625,1.380615234375t-1.642578125,0.55224609375l-0.3681640625-0.0283203125q0,0.38232421875,0.11328125,1.026611328125t0.332763671875,1.281494140625t0.56640625,1.11865234375t0.842529296875,0.4814453125q0.72216796875,0,1.3876953125-0.58056640625t1.26025390625-1.28857421875t1.1044921875-1.28857421875t0.9345703125-0.58056640625q0.2265625,0,0.46728515625,0.07080078125t0.26904296875,0.396484375q0,0.1982421875-0.106201171875,0.32568359375t-0.191162109375,0.283203125q-0.43896484375,0.75048828125-0.955810546875,1.43017578125t-1.168212890625,1.23193359375t-1.423095703125,0.870849609375t-1.706298828125,0.318603515625q-1.2177734375,0-2.02490234375-0.431884765625t-1.302734375-1.1611328125t-0.715087890625-1.68505859375t-0.219482421875-2.003662109375z M31.137905273438,28.72265625l0.396484375,0.35400390625q0.283203125,0.2548828125,0.56640625,0.11328125t0.509765625-0.516845703125t0.417724609375-0.927490234375t0.33984375-1.1328125t0.219482421875-1.1328125t0.07080078125-0.92041015625l0-0.4814453125t-0.04248046875-0.509765625t-0.148681640625-0.403564453125t-0.332763671875-0.205322265625q-0.07080078125-0.01416015625-0.12744140625-0.01416015625q-0.4814453125,0-0.8212890625,0.60888671875q-0.3681640625,0.6796875-0.5947265625,1.649658203125t-0.32568359375,1.989501953125t-0.12744140625,1.529296875z M40.436455078125,25.25341796875q0-0.58056640625,0.205322265625-0.97705078125t0.870849609375-0.396484375q0.2548828125,0,0.63720703125,0.077880859375t0.43896484375,0.389404296875q0.1416015625,0.83544921875,0.15576171875,1.8125t0.09912109375,1.8408203125q0.32568359375-0.63720703125,0.83544921875-1.37353515625t1.1611328125-1.359375t1.416015625-1.03369140625t1.5576171875-0.41064453125q0.056640625,0,0.21240234375,0.04248046875t0.290283203125,0.120361328125t0.162841796875,0.177001953125t-0.15576171875,0.18408203125q-0.056640625,0.169921875-0.24072265625,0.205322265625t-0.32568359375,0.035400390625q-0.0849609375,0-0.26904296875-0.07080078125q-1.0478515625,0.55224609375-1.7841796875,1.5009765625t-1.20361328125,2.102783203125t-0.6796875,2.435546875t-0.21240234375,2.499267578125q0,0.60888671875-0.276123046875,0.736328125t-0.885009765625,0.12744140625q-0.32568359375,0-0.686767578125-0.07080078125t-0.502685546875-0.453125q-0.2548828125-0.80712890625-0.417724609375-1.85498046875t-0.247802734375-2.159423828125t-0.120361328125-2.187744140625t-0.035400390625-1.93994140625z M50.499653320313,28.72265625q0-0.77880859375,0.148681640625-1.663818359375t0.509765625-1.621337890625t0.998291015625-1.2177734375t1.62841796875-0.4814453125q0.66552734375,0,1.28857421875,0.219482421875t1.17529296875,0.601806640625q0.169921875-0.283203125,0.5380859375-0.346923828125t0.6513671875-0.063720703125q0.11328125,0,0.318603515625,0.01416015625t0.403564453125,0.0849609375t0.346923828125,0.169921875t0.177001953125,0.283203125q0.11328125,0.9912109375,0.15576171875,1.975341796875t0.12744140625,1.961181640625q0.1416015625,1.82666015625,0.43896484375,3.61083984375t0.29736328125,3.61083984375q0,0.86376953125-0.077880859375,1.869140625t-0.41064453125,1.862060546875t-0.969970703125,1.423095703125t-1.77001953125,0.56640625q-1.01953125,0-1.564697265625-0.361083984375t-0.984130859375-1.210693359375q0.0283203125-0.283203125,0.361083984375-0.375244140625t0.573486328125-0.092041015625q0.2265625,0,0.460205078125,0.04248046875t0.375244140625,0.1416015625l0.35400390625,0.2265625q0.52392578125-1.076171875,0.63720703125-2.3505859375t0.11328125-2.4638671875q0-0.9912109375-0.09912109375-1.961181640625t-0.1982421875-1.947021484375q-0.9912109375,1.79833984375-3.01611328125,1.79833984375q-0.9345703125,0-1.522216796875-0.396484375t-0.90625-1.00537109375t-0.43896484375-1.37353515625t-0.120361328125-1.529296875z M52.241352539063,28.85009765625q0,0.35400390625,0.0283203125,0.913330078125t0.148681640625,1.097412109375t0.346923828125,0.927490234375t0.63720703125,0.389404296875q0.77880859375,0,1.23193359375-0.60888671875t0.715087890625-1.451416015625t0.417724609375-1.74169921875t0.396484375-1.479736328125q-0.0283203125-0.1982421875-0.0283203125-0.389404296875l0-0.389404296875q-0.32568359375-0.60888671875-0.94873046875-1.054931640625t-1.28857421875-0.601806640625q-0.0849609375-0.01416015625-0.15576171875-0.01416015625q-0.396484375,0-0.6513671875,0.46728515625q-0.32568359375,0.56640625-0.509765625,1.352294921875t-0.261962890625,1.550537109375t-0.077880859375,1.03369140625z M62.6019140625,29.798828125q0-0.9912109375,0.219482421875-2.33642578125t0.743408203125-2.548828125t1.380615234375-2.046142578125t2.159423828125-0.842529296875q1.2177734375,0,1.82666015625,0.700927734375t0.60888671875,1.890380859375q0,0.77880859375-0.290283203125,1.706298828125t-0.828369140625,1.755859375t-1.2744140625,1.380615234375t-1.642578125,0.55224609375l-0.3681640625-0.0283203125q0,0.38232421875,0.11328125,1.026611328125t0.332763671875,1.281494140625t0.56640625,1.11865234375t0.842529296875,0.4814453125q0.72216796875,0,1.3876953125-0.58056640625t1.26025390625-1.28857421875t1.1044921875-1.28857421875t0.9345703125-0.58056640625q0.2265625,0,0.46728515625,0.07080078125t0.26904296875,0.396484375q0,0.1982421875-0.106201171875,0.32568359375t-0.191162109375,0.283203125q-0.43896484375,0.75048828125-0.955810546875,1.43017578125t-1.168212890625,1.23193359375t-1.423095703125,0.870849609375t-1.706298828125,0.318603515625q-1.2177734375,0-2.02490234375-0.431884765625t-1.302734375-1.1611328125t-0.715087890625-1.68505859375t-0.219482421875-2.003662109375z M65.13658203125,28.72265625l0.396484375,0.35400390625q0.283203125,0.2548828125,0.56640625,0.11328125t0.509765625-0.516845703125t0.417724609375-0.927490234375t0.33984375-1.1328125t0.219482421875-1.1328125t0.07080078125-0.92041015625l0-0.4814453125t-0.04248046875-0.509765625t-0.148681640625-0.403564453125t-0.332763671875-0.205322265625q-0.07080078125-0.01416015625-0.12744140625-0.01416015625q-0.4814453125,0-0.8212890625,0.60888671875q-0.3681640625,0.6796875-0.5947265625,1.649658203125t-0.32568359375,1.989501953125t-0.12744140625,1.529296875z M74.435131835937,26.060546875q0-0.41064453125,0.233642578125-0.5380859375t0.587646484375-0.12744140625q0.58056640625,0,0.885009765625,0.219482421875t0.304443359375,0.771728515625q0,0.66552734375,0.09912109375,1.663818359375t0.290283203125,1.93994140625t0.453125,1.621337890625t0.545166015625,0.6796875q0.52392578125,0,0.927490234375-0.80712890625t0.7080078125-1.982421875t0.52392578125-2.527587890625t0.304443359375-2.414306640625q0.056640625-0.58056640625,0.276123046875-0.842529296875t0.800048828125-0.261962890625q0.66552734375,0,0.969970703125,0.55224609375t0.389404296875,1.359375q0.07080078125,0.69384765625,0.07080078125,1.4443359375l0,0.24072265625l0,0.56640625q0,0.5380859375,0.01416015625,0.962890625l0.41064453125,8.68017578125l0.056640625,1.4443359375q0.0283203125,0.1982421875,0.04248046875,0.375244140625t0.01416015625,0.375244140625q0,0.80712890625-0.346923828125,1.040771484375t-1.125732421875,0.233642578125q-0.169921875,0-0.431884765625-0.0283203125t-0.509765625-0.11328125t-0.4248046875-0.233642578125t-0.177001953125-0.375244140625l0.056640625-0.1416015625q0.07080078125-0.849609375,0.07080078125-1.7841796875l0-0.29736328125q-0.01416015625-1.1044921875-0.07080078125-2.2373046875t-0.12744140625-2.265625t-0.07080078125-2.1806640625q-0.1982421875,0.43896484375-0.460205078125,0.90625t-0.60888671875,0.842529296875t-0.785888671875,0.623046875t-0.9912109375,0.247802734375q-0.80712890625,0-1.3310546875-0.4248046875t-0.814208984375-1.1044921875t-0.417724609375-1.522216796875t-0.169921875-1.68505859375t-0.056640625-1.607177734375t-0.11328125-1.28857421875z M91.757817382812,29.98291015625q0-3.07275390625,0.276123046875-6.152587890625t1.154052734375-6.067626953125q0.2548828125-0.89208984375,0.66552734375-1.762939453125t1.00537109375-1.550537109375t1.416015625-1.1044921875t1.9541015625-0.4248046875l0.29736328125,0.0283203125q1.2177734375,0.169921875,1.79833984375,0.984130859375t0.58056640625,2.031982421875q0,0.32568359375-0.077880859375,0.814208984375t-0.247802734375,0.941650390625t-0.460205078125,0.771728515625t-0.729248046875,0.318603515625q-0.1982421875-0.0283203125-0.361083984375-0.07080078125t-0.304443359375-0.18408203125q0.2265625-0.49560546875,0.403564453125-1.03369140625t0.177001953125-1.23193359375q0-0.2548828125-0.04248046875-0.6513671875t-0.162841796875-0.785888671875t-0.318603515625-0.6796875t-0.55224609375-0.290283203125q-0.89208984375,0-1.5009765625,0.998291015625t-1.01953125,2.548828125t-0.60888671875,3.4267578125t-0.304443359375,3.625t-0.120361328125,3.15771484375t-0.01416015625,1.989501953125q0,0.6796875-0.01416015625,1.5009765625l0,0.18408203125q0.01416015625,0.72216796875,0.09912109375,1.37353515625q0.11328125,0.736328125,0.43896484375,1.2744140625t1.01953125,0.623046875q0.21240234375,0.0283203125,0.41064453125,0.0283203125q0.8212890625,0,1.48681640625-0.46728515625q0.8212890625-0.58056640625,1.45849609375-1.508056640625t1.1328125-2.0390625t0.913330078125-2.102783203125t0.814208984375-1.642578125t0.8212890625-0.6513671875q0.1416015625,0,0.4248046875,0.056640625t0.283203125,0.26904296875q0,0.056640625-0.0283203125,0.15576171875t-0.07080078125,0.15576171875q-0.38232421875,1.5009765625-0.969970703125,3.115234375t-1.5009765625,2.938232421875t-2.2373046875,2.159423828125t-3.178955078125,0.83544921875q-1.3310546875,0-2.159423828125-0.502685546875t-1.2744140625-1.34521484375t-0.60888671875-1.904541015625t-0.162841796875-2.15234375z M106.84787109375,30.76171875l0-1.3310546875q0-0.72216796875,0.035400390625-2.046142578125t0.092041015625-2.90283203125t0.15576171875-3.292236328125t0.2265625-3.235595703125t0.304443359375-2.725830078125t0.403564453125-1.7841796875q0.1416015625-0.32568359375,0.46728515625-0.41064453125t0.63720703125-0.0849609375q0.49560546875,0,0.870849609375,0.219482421875t0.375244140625,0.800048828125l-0.2548828125,0.283203125q-0.49560546875,3.27099609375-0.63720703125,6.5703125t-0.1982421875,6.5986328125q0.35400390625-0.55224609375,0.800048828125-1.083251953125t0.9912109375-0.941650390625t1.17529296875-0.658447265625t1.380615234375-0.247802734375q0.962890625,0,1.593017578125,0.58056640625t1.040771484375,1.508056640625t0.60888671875,2.074462890625t0.304443359375,2.2939453125t0.148681640625,2.173583984375t0.12744140625,1.706298828125q-0.26904296875,0.3681640625-0.79296875,0.3681640625l-0.04248046875,0q-0.2265625,0-0.49560546875-0.056640625t-0.35400390625-0.283203125l0.0283203125,0.0283203125q-0.1982421875-0.43896484375-0.26904296875-1.267333984375t-0.11328125-1.82666015625t-0.148681640625-2.046142578125t-0.318603515625-1.8974609375t-0.623046875-1.40185546875t-1.1044921875-0.58056640625l-0.0849609375,0q-0.83544921875,0-1.40185546875,0.509765625q-0.5947265625,0.5380859375-0.962890625,1.416015625t-0.56640625,1.9541015625t-0.304443359375,2.074462890625t-0.162841796875,1.8125t-0.1416015625,1.196533203125q-0.0849609375,0.32568359375-0.502685546875,0.431884765625t-0.715087890625,0.106201171875q-0.69384765625,0-1.1328125-0.396484375q-0.32568359375-0.77880859375-0.38232421875-1.93994140625t-0.056640625-2.265625z M119.81390136719,27.97216796875q0-0.283203125,0.063720703125-0.75048828125t0.148681640625-0.927490234375t0.1982421875-0.856689453125t0.26904296875-0.509765625q0.11328125-0.11328125,0.389404296875-0.2265625t0.58056640625-0.162841796875t0.56640625,0.04248046875t0.318603515625,0.375244140625q-0.1982421875,0.2548828125-0.361083984375,0.870849609375t-0.247802734375,1.366455078125q-0.07080078125,0.63720703125-0.07080078125,1.31689453125l0,0.24072265625q0.01416015625,0.79296875,0.1416015625,1.45849609375t0.389404296875,1.097412109375t0.729248046875,0.431884765625q0.9912109375,0,1.8125-0.913330078125t1.45849609375-2.230224609375t1.11865234375-2.796630859375t0.8212890625-2.584228515625q0.0849609375-0.32568359375,0.403564453125-0.43896484375t0.686767578125-0.077880859375t0.658447265625,0.177001953125t0.346923828125,0.33984375q-0.283203125,2.37890625-0.446044921875,4.7578125t-0.162841796875,4.7861328125q0,0.46728515625,0.04248046875,0.856689453125t-0.04248046875,0.66552734375t-0.375244140625,0.43896484375t-0.927490234375,0.162841796875q-0.1416015625,0-0.361083984375-0.0283203125t-0.453125-0.092041015625t-0.396484375-0.191162109375t-0.162841796875-0.29736328125q0-1.0478515625,0.077880859375-2.15234375t0.219482421875-2.13818359375q-0.38232421875,0.55224609375-0.842529296875,1.097412109375t-1.012451171875,0.984130859375t-1.189453125,0.700927734375t-1.37353515625,0.261962890625q-1.0478515625,0-1.649658203125-0.49560546875t-0.90625-1.239013671875t-0.38232421875-1.621337890625t-0.077880859375-1.69921875z"/><path fill="#d14f24" d=""/></svg>
